<svg width="208" height="116" viewBox="0 0 208 116" fill="none" xmlns="http://www.w3.org/2000/svg">
<path d="M8.4 0V21H0V0H8.4ZM16.7945 0V21H8.39453V0H16.7945ZM22.6691 7.42V21H21.5491V8.54H16.7191V7.42H22.6691ZM20.4291 9.66V21H19.3091V10.78H16.7191V9.66H20.4291ZM50.3727 0V21H41.9727V0H50.3727ZM58.7672 0V21H50.3672V0H58.7672ZM64.6417 7.42V21H63.5217V8.54H58.6917V7.42H64.6417ZM62.4017 9.66V21H61.2817V10.78H58.6917V9.66H62.4017ZM83.9508 0V21H75.5508V0H83.9508ZM92.3453 0V21H83.9453V0H92.3453ZM100.74 0V21H92.3398V0H100.74ZM109.134 0V21H100.734V0H109.134ZM117.529 0V21H109.129V0H117.529ZM125.923 0V21H117.523V0H125.923ZM131.798 7.42V21H130.678V8.54H125.848V7.42H131.798ZM129.558 9.66V21H128.438V10.78H125.848V9.66H129.558ZM151.107 0V21H142.707V0H151.107ZM159.502 0V21H151.102V0H159.502ZM165.376 7.42V21H164.256V8.54H159.426V7.42H165.376ZM163.136 9.66V21H162.016V10.78H159.426V9.66H163.136ZM193.08 0V21H184.68V0H193.08ZM201.474 0V21H193.074V0H201.474ZM207.349 7.42V21H206.229V8.54H201.399V7.42H207.349ZM205.109 9.66V21H203.989V10.78H201.399V9.66H205.109ZM8.4 21V42H0V21H8.4ZM16.7945 21V42H8.39453V21H16.7945ZM22.6691 21V42H21.5491V21H22.6691ZM20.4291 21V42H19.3091V21H20.4291ZM50.3727 21V42H41.9727V21H50.3727ZM58.7672 21V42H50.3672V21H58.7672ZM64.6417 21V42H63.5217V21H64.6417ZM62.4017 21V42H61.2817V21H62.4017ZM75.5563 21V42H67.1562V21H75.5563ZM83.9508 21V42H75.5508V21H83.9508ZM92.4153 28.42V29.54H87.5853V42H86.4653V28.42H92.4153ZM92.4153 30.66V31.78H89.8253V42H88.7053V30.66H92.4153ZM100.81 28.42V29.54H92.2698V28.42H100.81ZM100.81 30.66V31.78H92.2698V30.66H100.81ZM109.134 21V42H100.734V21H109.134ZM117.529 21V42H109.129V21H117.529ZM125.923 21V42H117.523V21H125.923ZM134.318 21V42H125.918V21H134.318ZM140.193 28.42V42H139.073V29.54H134.242V28.42H140.193ZM137.953 30.66V42H136.833V31.78H134.242V30.66H137.953ZM151.107 21V42H142.707V21H151.107ZM159.502 21V42H151.102V21H159.502ZM165.376 21V42H164.256V21H165.376ZM163.136 21V42H162.016V21H163.136ZM193.08 21V42H184.68V21H193.08ZM201.474 21V42H193.074V21H201.474ZM207.349 21V42H206.229V21H207.349ZM205.109 21V42H203.989V21H205.109ZM8.4 42V63H0V42H8.4ZM16.7945 42V63H8.39453V42H16.7945ZM25.1891 42V63H16.7891V42H25.1891ZM33.5836 42V63H25.1836V42H33.5836ZM41.9781 42V63H33.5781V42H41.9781ZM50.3727 42V63H41.9727V42H50.3727ZM58.7672 42V63H50.3672V42H58.7672ZM64.6417 42V63H63.5217V42H64.6417ZM62.4017 42V63H61.2817V42H62.4017ZM75.5563 42V63H67.1562V42H75.5563ZM83.9508 42V63H75.5508V42H83.9508ZM89.8253 42V63H88.7053V42H89.8253ZM87.5853 42V63H86.4653V42H87.5853ZM100.74 42V63H92.3398V42H100.74ZM109.134 42V63H100.734V42H109.134ZM117.599 49.42V50.54H112.769V63H111.649V49.42H117.599ZM117.599 51.66V52.78H115.009V63H113.889V51.66H117.599ZM125.923 42V63H117.523V42H125.923ZM134.318 42V63H125.918V42H134.318ZM140.193 42V63H139.073V42H140.193ZM137.953 42V63H136.833V42H137.953ZM151.107 42V63H142.707V42H151.107ZM159.502 42V63H151.102V42H159.502ZM167.896 42V63H159.496V42H167.896ZM176.291 42V63H167.891V42H176.291ZM184.685 42V63H176.285V42H184.685ZM193.08 42V63H184.68V42H193.08ZM201.474 42V63H193.074V42H201.474ZM207.349 42V63H206.229V42H207.349ZM205.109 42V63H203.989V42H205.109ZM3.64 63V72.66H8.47V73.78H2.52V63H3.64ZM5.88 63V70.42H8.47V71.54H4.76V63H5.88ZM16.8645 70.42V71.54H8.32453V70.42H16.8645ZM16.8645 72.66V73.78H8.32453V72.66H16.8645ZM25.2591 70.42V71.54H16.7191V70.42H25.2591ZM25.2591 72.66V73.78H16.7191V72.66H25.2591ZM33.6536 70.42V71.54H25.1136V70.42H33.6536ZM33.6536 72.66V73.78H25.1136V72.66H33.6536ZM42.0481 70.42V71.54H33.5081V70.42H42.0481ZM42.0481 72.66V73.78H33.5081V72.66H42.0481ZM50.3727 63V84H41.9727V63H50.3727ZM58.7672 63V84H50.3672V63H58.7672ZM64.6417 63V84H63.5217V63H64.6417ZM62.4017 63V84H61.2817V63H62.4017ZM75.5563 63V84H67.1562V63H75.5563ZM83.9508 63V84H75.5508V63H83.9508ZM92.3453 63V84H83.9453V63H92.3453ZM100.74 63V84H92.3398V63H100.74ZM109.204 70.42V71.54H104.374V84H103.254V70.42H109.204ZM109.204 72.66V73.78H106.614V84H105.494V72.66H109.204ZM115.009 63V73.78H109.059V72.66H113.889V63H115.009ZM112.769 63V71.54H109.059V70.42H111.649V63H112.769ZM125.923 63V84H117.523V63H125.923ZM134.318 63V84H125.918V63H134.318ZM140.193 63V84H139.073V63H140.193ZM137.953 63V84H136.833V63H137.953ZM146.347 63V72.66H151.177V73.78H145.227V63H146.347ZM148.587 63V70.42H151.177V71.54H147.467V63H148.587ZM159.572 70.42V71.54H151.032V70.42H159.572ZM159.572 72.66V73.78H151.032V72.66H159.572ZM167.966 70.42V71.54H159.426V70.42H167.966ZM167.966 72.66V73.78H159.426V72.66H167.966ZM176.361 70.42V71.54H167.821V70.42H176.361ZM176.361 72.66V73.78H167.821V72.66H176.361ZM184.755 70.42V71.54H176.215V70.42H184.755ZM184.755 72.66V73.78H176.215V72.66H184.755ZM193.08 63V84H184.68V63H193.08ZM201.474 63V84H193.074V63H201.474ZM207.349 63V84H206.229V63H207.349ZM205.109 63V84H203.989V63H205.109ZM50.3727 84V105H41.9727V84H50.3727ZM58.7672 84V105H50.3672V84H58.7672ZM64.6417 84V105H63.5217V84H64.6417ZM62.4017 84V105H61.2817V84H62.4017ZM70.7963 84V93.66H75.6263V94.78H69.6763V84H70.7963ZM73.0363 84V91.42H75.6263V92.54H71.9163V84H73.0363ZM83.9508 84V105H75.5508V84H83.9508ZM92.3453 84V105H83.9453V84H92.3453ZM100.74 84V105H92.3398V84H100.74ZM109.134 84V105H100.734V84H109.134ZM117.529 84V105H109.129V84H117.529ZM125.923 84V105H117.523V84H125.923ZM134.388 91.42V92.54H129.558V105H128.438V91.42H134.388ZM134.388 93.66V94.78H131.798V105H130.678V93.66H134.388ZM140.193 84V94.78H134.242V93.66H139.073V84H140.193ZM137.953 84V92.54H134.242V91.42H136.833V84H137.953ZM193.08 84V105H184.68V84H193.08ZM201.474 84V105H193.074V84H201.474ZM207.349 84V105H206.229V84H207.349ZM205.109 84V105H203.989V84H205.109ZM45.6127 105V114.66H50.4427V115.78H44.4927V105H45.6127ZM47.8527 105V112.42H50.4427V113.54H46.7327V105H47.8527ZM58.8372 112.42V113.54H50.2972V112.42H58.8372ZM58.8372 114.66V115.78H50.2972V114.66H58.8372ZM64.6417 105V115.78H58.6917V114.66H63.5217V105H64.6417ZM62.4017 105V113.54H58.6917V112.42H61.2817V105H62.4017ZM79.1908 105V114.66H84.0208V115.78H78.0708V105H79.1908ZM81.4308 105V112.42H84.0208V113.54H80.3108V105H81.4308ZM92.4153 112.42V113.54H83.8753V112.42H92.4153ZM92.4153 114.66V115.78H83.8753V114.66H92.4153ZM100.81 112.42V113.54H92.2698V112.42H100.81ZM100.81 114.66V115.78H92.2698V114.66H100.81ZM109.204 112.42V113.54H100.664V112.42H109.204ZM109.204 114.66V115.78H100.664V114.66H109.204ZM117.599 112.42V113.54H109.059V112.42H117.599ZM117.599 114.66V115.78H109.059V114.66H117.599ZM125.993 112.42V113.54H117.453V112.42H125.993ZM125.993 114.66V115.78H117.453V114.66H125.993ZM131.798 105V115.78H125.848V114.66H130.678V105H131.798ZM129.558 105V113.54H125.848V112.42H128.438V105H129.558ZM188.32 105V114.66H193.15V115.78H187.2V105H188.32ZM190.56 105V112.42H193.15V113.54H189.44V105H190.56ZM201.544 112.42V113.54H193.004V112.42H201.544ZM201.544 114.66V115.78H193.004V114.66H201.544ZM207.349 105V115.78H201.399V114.66H206.229V105H207.349ZM205.109 105V113.54H201.399V112.42H203.989V105H205.109Z" fill="#90A1B9"/>
</svg>
