<svg width="297" height="164" viewBox="0 0 297 164" fill="none" xmlns="http://www.w3.org/2000/svg">
<path d="M12.1016 -7.15256e-07V24H0.101562V-7.15256e-07H12.1016ZM24.0938 -7.15256e-07V24H12.0938V-7.15256e-07H24.0938ZM32.4859 8.6V28H30.8859V10.2H23.9859V8.6H32.4859ZM29.2859 11.8V28H27.6859V13.4H23.9859V11.8H29.2859ZM72.0625 -7.15256e-07V24H60.0625V-7.15256e-07H72.0625ZM84.0547 -7.15256e-07V24H72.0547V-7.15256e-07H84.0547ZM92.4469 8.6V28H90.8469V10.2H83.9469V8.6H92.4469ZM89.2469 11.8V28H87.6469V13.4H83.9469V11.8H89.2469ZM120.031 -7.15256e-07V24H108.031V-7.15256e-07H120.031ZM132.023 -7.15256e-07V24H120.023V-7.15256e-07H132.023ZM144.016 -7.15256e-07V24H132.016V-7.15256e-07H144.016ZM156.008 -7.15256e-07V24H144.008V-7.15256e-07H156.008ZM168 -7.15256e-07V24H156V-7.15256e-07H168ZM179.992 -7.15256e-07V24H167.992V-7.15256e-07H179.992ZM188.384 8.6V28H186.784V10.2H179.884V8.6H188.384ZM185.184 11.8V28H183.584V13.4H179.884V11.8H185.184ZM215.969 -7.15256e-07V24H203.969V-7.15256e-07H215.969ZM227.961 -7.15256e-07V24H215.961V-7.15256e-07H227.961ZM236.353 8.6V28H234.753V10.2H227.853V8.6H236.353ZM233.153 11.8V28H231.553V13.4H227.853V11.8H233.153ZM275.93 -7.15256e-07V24H263.93V-7.15256e-07H275.93ZM287.922 -7.15256e-07V24H275.922V-7.15256e-07H287.922ZM296.314 8.6V28H294.714V10.2H287.814V8.6H296.314ZM293.114 11.8V28H291.514V13.4H287.814V11.8H293.114ZM12.1016 30V54H0.101562V30H12.1016ZM24.0938 30V54H12.0938V30H24.0938ZM32.4859 28V58H30.8859V28H32.4859ZM29.2859 28V58H27.6859V28H29.2859ZM72.0625 30V54H60.0625V30H72.0625ZM84.0547 30V54H72.0547V30H84.0547ZM92.4469 28V58H90.8469V28H92.4469ZM89.2469 28V58H87.6469V28H89.2469ZM108.039 30V54H96.0391V30H108.039ZM120.031 30V54H108.031V30H120.031ZM132.123 38.6V40.2H125.223V58H123.623V38.6H132.123ZM132.123 41.8V43.4H128.423V58H126.823V41.8H132.123ZM144.116 38.6V40.2H131.916V38.6H144.116ZM144.116 41.8V43.4H131.916V41.8H144.116ZM156.008 30V54H144.008V30H156.008ZM168 30V54H156V30H168ZM179.992 30V54H167.992V30H179.992ZM191.984 30V54H179.984V30H191.984ZM200.377 38.6V58H198.777V40.2H191.877V38.6H200.377ZM197.177 41.8V58H195.577V43.4H191.877V41.8H197.177ZM215.969 30V54H203.969V30H215.969ZM227.961 30V54H215.961V30H227.961ZM236.353 28V58H234.753V28H236.353ZM233.153 28V58H231.553V28H233.153ZM275.93 30V54H263.93V30H275.93ZM287.922 30V54H275.922V30H287.922ZM296.314 28V58H294.714V28H296.314ZM293.114 28V58H291.514V28H293.114ZM12.1016 60V84H0.101562V60H12.1016ZM24.0938 60V84H12.0938V60H24.0938ZM36.0859 60V84H24.0859V60H36.0859ZM48.0781 60V84H36.0781V60H48.0781ZM60.0703 60V84H48.0703V60H60.0703ZM72.0625 60V84H60.0625V60H72.0625ZM84.0547 60V84H72.0547V60H84.0547ZM92.4469 58V88H90.8469V58H92.4469ZM89.2469 58V88H87.6469V58H89.2469ZM108.039 60V84H96.0391V60H108.039ZM120.031 60V84H108.031V60H120.031ZM128.423 58V88H126.823V58H128.423ZM125.223 58V88H123.623V58H125.223ZM144.016 60V84H132.016V60H144.016ZM156.008 60V84H144.008V60H156.008ZM168.1 68.6V70.2H161.2V88H159.6V68.6H168.1ZM168.1 71.8V73.4H164.4V88H162.8V71.8H168.1ZM179.992 60V84H167.992V60H179.992ZM191.984 60V84H179.984V60H191.984ZM200.377 58V88H198.777V58H200.377ZM197.177 58V88H195.577V58H197.177ZM215.969 60V84H203.969V60H215.969ZM227.961 60V84H215.961V60H227.961ZM239.953 60V84H227.953V60H239.953ZM251.945 60V84H239.945V60H251.945ZM263.938 60V84H251.938V60H263.938ZM275.93 60V84H263.93V60H275.93ZM287.922 60V84H275.922V60H287.922ZM296.314 58V88H294.714V58H296.314ZM293.114 58V88H291.514V58H293.114ZM5.30156 88V101.8H12.2016V103.4H3.70156V88H5.30156ZM8.50156 88V98.6H12.2016V100.2H6.90156V88H8.50156ZM24.1938 98.6V100.2H11.9937V98.6H24.1938ZM24.1938 101.8V103.4H11.9937V101.8H24.1938ZM36.1859 98.6V100.2H23.9859V98.6H36.1859ZM36.1859 101.8V103.4H23.9859V101.8H36.1859ZM48.1781 98.6V100.2H35.9781V98.6H48.1781ZM48.1781 101.8V103.4H35.9781V101.8H48.1781ZM60.1703 98.6V100.2H47.9703V98.6H60.1703ZM60.1703 101.8V103.4H47.9703V101.8H60.1703ZM72.0625 90V114H60.0625V90H72.0625ZM84.0547 90V114H72.0547V90H84.0547ZM92.4469 88V118H90.8469V88H92.4469ZM89.2469 88V118H87.6469V88H89.2469ZM108.039 90V114H96.0391V90H108.039ZM120.031 90V114H108.031V90H120.031ZM132.023 90V114H120.023V90H132.023ZM144.016 90V114H132.016V90H144.016ZM156.108 98.6V100.2H149.208V118H147.608V98.6H156.108ZM156.108 101.8V103.4H152.408V118H150.808V101.8H156.108ZM164.4 88V103.4H155.9V101.8H162.8V88H164.4ZM161.2 88V100.2H155.9V98.6H159.6V88H161.2ZM179.992 90V114H167.992V90H179.992ZM191.984 90V114H179.984V90H191.984ZM200.377 88V118H198.777V88H200.377ZM197.177 88V118H195.577V88H197.177ZM209.169 88V101.8H216.069V103.4H207.569V88H209.169ZM212.369 88V98.6H216.069V100.2H210.769V88H212.369ZM228.061 98.6V100.2H215.861V98.6H228.061ZM228.061 101.8V103.4H215.861V101.8H228.061ZM240.053 98.6V100.2H227.853V98.6H240.053ZM240.053 101.8V103.4H227.853V101.8H240.053ZM252.045 98.6V100.2H239.845V98.6H252.045ZM252.045 101.8V103.4H239.845V101.8H252.045ZM264.038 98.6V100.2H251.837V98.6H264.038ZM264.038 101.8V103.4H251.837V101.8H264.038ZM275.93 90V114H263.93V90H275.93ZM287.922 90V114H275.922V90H287.922ZM296.314 88V118H294.714V88H296.314ZM293.114 88V118H291.514V88H293.114ZM72.0625 120V144H60.0625V120H72.0625ZM84.0547 120V144H72.0547V120H84.0547ZM92.4469 118V148H90.8469V118H92.4469ZM89.2469 118V148H87.6469V118H89.2469ZM101.239 118V131.8H108.139V133.4H99.6391V118H101.239ZM104.439 118V128.6H108.139V130.2H102.839V118H104.439ZM120.031 120V144H108.031V120H120.031ZM132.023 120V144H120.023V120H132.023ZM144.016 120V144H132.016V120H144.016ZM156.008 120V144H144.008V120H156.008ZM168 120V144H156V120H168ZM179.992 120V144H167.992V120H179.992ZM192.084 128.6V130.2H185.184V148H183.584V128.6H192.084ZM192.084 131.8V133.4H188.384V148H186.784V131.8H192.084ZM200.377 118V133.4H191.877V131.8H198.777V118H200.377ZM197.177 118V130.2H191.877V128.6H195.577V118H197.177ZM275.93 120V144H263.93V120H275.93ZM287.922 120V144H275.922V120H287.922ZM296.314 118V148H294.714V118H296.314ZM293.114 118V148H291.514V118H293.114ZM65.2625 148V161.8H72.1625V163.4H63.6625V148H65.2625ZM68.4625 148V158.6H72.1625V160.2H66.8625V148H68.4625ZM84.1547 158.6V160.2H71.9547V158.6H84.1547ZM84.1547 161.8V163.4H71.9547V161.8H84.1547ZM92.4469 148V163.4H83.9469V161.8H90.8469V148H92.4469ZM89.2469 148V160.2H83.9469V158.6H87.6469V148H89.2469ZM113.231 148V161.8H120.131V163.4H111.631V148H113.231ZM116.431 148V158.6H120.131V160.2H114.831V148H116.431ZM132.123 158.6V160.2H119.923V158.6H132.123ZM132.123 161.8V163.4H119.923V161.8H132.123ZM144.116 158.6V160.2H131.916V158.6H144.116ZM144.116 161.8V163.4H131.916V161.8H144.116ZM156.108 158.6V160.2H143.908V158.6H156.108ZM156.108 161.8V163.4H143.908V161.8H156.108ZM168.1 158.6V160.2H155.9V158.6H168.1ZM168.1 161.8V163.4H155.9V161.8H168.1ZM180.092 158.6V160.2H167.892V158.6H180.092ZM180.092 161.8V163.4H167.892V161.8H180.092ZM188.384 148V163.4H179.884V161.8H186.784V148H188.384ZM185.184 148V160.2H179.884V158.6H183.584V148H185.184ZM269.13 148V161.8H276.03V163.4H267.53V148H269.13ZM272.33 148V158.6H276.03V160.2H270.73V148H272.33ZM288.022 158.6V160.2H275.822V158.6H288.022ZM288.022 161.8V163.4H275.822V161.8H288.022ZM296.314 148V163.4H287.814V161.8H294.714V148H296.314ZM293.114 148V160.2H287.814V158.6H291.514V148H293.114Z" fill="#90A1B9"/>
</svg>
